<svg width="13" height="14" viewBox="0 0 13 14" fill="none" xmlns="http://www.w3.org/2000/svg">
<path d="M11.6074 2.87793H9.63421L9.16412 1.45918C9.13164 1.3621 9.07212 1.27818 8.9937 1.21889C8.91528 1.15961 8.82177 1.12784 8.72595 1.12793H4.27461C4.07874 1.12793 3.90318 1.26074 3.83789 1.45918L3.36635 2.87793H1.39314C0.751841 2.87793 0.232422 3.43731 0.232422 4.12793V11.2529C0.232422 11.9436 0.751841 12.5029 1.39314 12.5029H11.6074C12.2487 12.5029 12.7681 11.9436 12.7681 11.2529V4.12793C12.7681 3.43731 12.2487 2.87793 11.6074 2.87793ZM11.7235 11.2529C11.7235 11.3217 11.6713 11.3779 11.6074 11.3779H1.39314C1.3293 11.3779 1.27706 11.3217 1.27706 11.2529V4.12793C1.27706 4.05918 1.3293 4.00293 1.39314 4.00293H4.10195L4.35006 3.25606L4.68231 2.25293H8.3168L8.64905 3.25606L8.89715 4.00293H11.6074C11.6713 4.00293 11.7235 4.05918 11.7235 4.12793V11.2529ZM6.50028 5.00293C5.21769 5.00293 4.17885 6.12168 4.17885 7.50293C4.17885 8.88418 5.21769 10.0029 6.50028 10.0029C7.78287 10.0029 8.82171 8.88418 8.82171 7.50293C8.82171 6.12168 7.78287 5.00293 6.50028 5.00293ZM6.50028 9.00293C5.73131 9.00293 5.10742 8.33106 5.10742 7.50293C5.10742 6.67481 5.73131 6.00293 6.50028 6.00293C7.26925 6.00293 7.89314 6.67481 7.89314 7.50293C7.89314 8.33106 7.26925 9.00293 6.50028 9.00293Z" fill="white"/>
</svg>
