<svg width="24" height="24" viewBox="0 0 24 24" fill="none" xmlns="http://www.w3.org/2000/svg">
<path fill-rule="evenodd" clip-rule="evenodd" d="M16.2308 12.0038L23.096 5.13865C23.6656 4.59903 23.9953 3.84956 23.9953 3.01015C23.9945 2.41662 23.818 1.83662 23.4881 1.34321C23.1582 0.849807 22.6897 0.465071 22.1415 0.237473C21.5933 0.00987416 20.9901 -0.0504051 20.4077 0.0642283C19.8254 0.178862 19.29 0.46328 18.869 0.881652L12.0038 7.77679L5.13865 0.881652C4.57414 0.31714 3.80849 -5.94811e-09 3.01015 0C2.21181 5.94811e-09 1.44617 0.31714 0.881652 0.881652C0.31714 1.44617 5.94811e-09 2.21181 0 3.01015C-5.94811e-09 3.80849 0.31714 4.57414 0.881652 5.13865L7.77679 12.0038L0.911632 18.869C0.342034 19.4086 0.0122659 20.1581 0.0122659 20.9975C0.0131228 21.591 0.189617 22.171 0.519514 22.6644C0.84941 23.1578 1.31795 23.5425 1.86611 23.7701C2.41427 23.9977 3.01753 24.058 3.59988 23.9434C4.18224 23.8287 4.71765 23.5443 5.13865 23.126L12.0038 16.2308L18.869 23.096C19.4086 23.6656 20.1581 23.9953 20.9975 23.9953C21.591 23.9945 22.171 23.818 22.6644 23.4881C23.1578 23.1582 23.5425 22.6897 23.7701 22.1415C23.9977 21.5933 24.058 20.9901 23.9434 20.4077C23.8287 19.8254 23.5443 19.29 23.126 18.869L16.2308 12.0038Z" fill="#F24E1E"/>
</svg>
