<svg width="36" height="36" viewBox="0 0 36 36" fill="none" xmlns="http://www.w3.org/2000/svg">
<circle cx="18" cy="18" r="18" transform="rotate(180 18 18)" fill="#363436"/>
<path d="M9.96474 18.8481L23.025 18.8481L15.208 25.6338C15.083 25.7432 15.1589 25.9463 15.3241 25.9463L17.2996 25.9463C17.3866 25.9463 17.4692 25.915 17.5339 25.8592L25.9692 18.54C26.0465 18.4731 26.1084 18.3903 26.1509 18.2973C26.1934 18.2043 26.2153 18.1032 26.2153 18.001C26.2153 17.8987 26.1934 17.7977 26.1509 17.7047C26.1084 17.6117 26.0465 17.5289 25.9692 17.4619L17.4848 10.0981C17.4514 10.0691 17.4112 10.0534 17.3688 10.0534L15.3264 10.0534C15.1612 10.0534 15.0853 10.2588 15.2103 10.3659L23.025 17.1516L9.96474 17.1516C9.86653 17.1516 9.78617 17.232 9.78617 17.3302L9.78617 18.6695C9.78617 18.7677 9.86653 18.8481 9.96474 18.8481Z" fill="white" fill-opacity="0.85"/>
</svg>
