<svg width="36" height="36" viewBox="0 0 36 36" fill="none" xmlns="http://www.w3.org/2000/svg">
<circle cx="18" cy="18" r="18" transform="rotate(-90 18 18)" fill="#363436"/>
<path d="M17.1514 9.96426L17.1514 23.0245L10.3657 15.2076C10.2563 15.0826 10.0532 15.1585 10.0532 15.3236L10.0532 17.2991C10.0532 17.3861 10.0845 17.4687 10.1403 17.5335L17.4595 25.9687C17.5264 26.046 17.6092 26.1079 17.7022 26.1504C17.7952 26.1929 17.8963 26.2148 17.9985 26.2148C18.1008 26.2148 18.2018 26.1929 18.2948 26.1504C18.3878 26.1079 18.4706 26.046 18.5376 25.9687L25.9014 17.4843C25.9305 17.4509 25.9461 17.4107 25.9461 17.3683L25.9461 15.3259C25.9461 15.1607 25.7407 15.0848 25.6336 15.2098L18.8479 23.0245L18.8479 9.96426C18.8479 9.86604 18.7675 9.78568 18.6693 9.78568L17.33 9.78568C17.2318 9.78568 17.1514 9.86604 17.1514 9.96426Z" fill="white" fill-opacity="0.85"/>
</svg>
