<svg width="36" height="36" viewBox="0 0 36 36" fill="none" xmlns="http://www.w3.org/2000/svg">
<circle cx="18" cy="18" r="18" transform="rotate(180 18 18)" fill="#363436"/>
<path d="M9.96426 18.8481L23.0245 18.8481L15.2076 25.6338C15.0826 25.7432 15.1585 25.9463 15.3236 25.9463L17.2991 25.9463C17.3861 25.9463 17.4687 25.915 17.5335 25.8592L25.9687 18.54C26.046 18.4731 26.1079 18.3903 26.1504 18.2973C26.1929 18.2043 26.2148 18.1032 26.2148 18.001C26.2148 17.8987 26.1929 17.7977 26.1504 17.7047C26.1079 17.6117 26.046 17.5289 25.9687 17.4619L17.4843 10.0981C17.4509 10.0691 17.4107 10.0534 17.3683 10.0534L15.3259 10.0534C15.1607 10.0534 15.0848 10.2588 15.2098 10.3659L23.0245 17.1516L9.96426 17.1516C9.86604 17.1516 9.78568 17.232 9.78568 17.3302L9.78568 18.6695C9.78568 18.7677 9.86604 18.8481 9.96426 18.8481Z" fill="white" fill-opacity="0.85"/>
</svg>
