<svg width="32" height="32" viewBox="0 0 32 32" fill="none" xmlns="http://www.w3.org/2000/svg">
<path d="M27.5021 6.9216C26.0364 6.9216 25.7279 7.63616 26.705 8.82707C30.3564 13.2996 27.0136 24.1237 20.9966 27.273C16.111 29.8136 11.0198 28.6757 7.4713 25.7381C1.96862 21.1597 0.605777 13.5643 7.57413 6.44524C11.9197 1.99916 16.8053 1.46986 21.1252 4.53977C23.208 5.99534 24.185 6.10119 25.9593 5.0426C28.582 3.45472 24.8536 1.33753 20.1737 0.411267C4.87421 -2.63218 -5.87397 11.7382 3.51145 26.2674C8.31987 33.704 23.6194 33.9686 28.2221 26.6908C33.5705 18.2485 33.159 6.9216 27.5021 6.9216Z" fill="black"/>
<path d="M13.2815 20.975C9.11594 19.7577 8.13883 21.8484 12.1244 23.3304C14.0786 24.045 14.3872 23.8597 14.5672 25.2359C14.9272 28.2529 17.9357 27.5383 17.9357 24.4155C17.9357 23.7538 18.2185 23.4363 19.1699 23.1187C23.104 21.769 23.3098 16.2643 19.4785 14.8088C18.4242 14.4118 16.8043 14.3853 15.3901 14.2001C10.9931 13.5649 13.2815 9.8863 15.7243 10.0451C16.0843 10.0716 18.5784 10.3097 19.1441 10.3891C20.9698 10.4685 21.3041 9.9657 21.407 9.40994C21.5613 8.64246 19.607 7.66326 17.9099 7.66326C16.9585 7.66326 16.8299 7.53094 16.8299 6.63114C16.8299 4.96385 15.3129 4.03759 14.4129 5.17557C14.2072 5.44022 14.0015 6.02245 13.9244 6.49881C13.8215 7.16043 13.4101 7.50447 12.0216 7.98084C7.52173 9.5158 6.72456 15.2587 14.4129 16.4496C16.4957 16.7671 18.9642 17.4817 18.8099 18.9108C18.5785 21.1603 14.4901 21.3191 13.2815 20.975Z" fill="black"/>
</svg>
