<svg width="32" height="32" viewBox="0 0 32 32" fill="none" xmlns="http://www.w3.org/2000/svg">
<path fill-rule="evenodd" clip-rule="evenodd" d="M15.4467 0.619388C15.3021 1.77926 15.3117 4.7949 15.5238 5.18462C16.0156 6.13107 16.4881 5.38875 16.5941 3.51441C16.6809 1.88131 16.758 1.09261 16.7677 0.675062C16.8062 -0.252833 15.5431 -0.178601 15.4467 0.619388ZM21.8973 0.879198C21.2223 1.13901 17.4523 7.73632 17.4523 8.66421C17.4523 8.92402 17.8669 9.00753 18.1851 8.8034C18.5033 8.59926 19.265 7.46723 20.2003 5.78775C21.2416 3.93196 22.3505 2.00195 22.6204 1.59368C23.0447 0.944151 22.6783 0.582272 21.8973 0.879198ZM9.20824 2.29888C9.03468 2.4195 9.06361 2.47518 9.58428 3.43091C11.5706 7.03112 11.6766 7.45795 12.6601 7.33732C13.4026 7.24453 13.4026 7.19814 12.3998 5.41659C11.2524 3.35667 10.6256 2.38239 10.4039 2.27104C10.1532 2.13186 9.42037 2.15041 9.20824 2.29888ZM25.2142 2.90201C24.6549 3.1247 21.6948 6.50223 21.6948 6.91977C21.6948 7.6992 23.1604 6.59502 25.7734 3.85773C26.5544 3.0319 26.2459 2.49373 25.2142 2.90201ZM5.4285 4.73923C4.55107 4.90625 5.85276 6.43727 6.87484 6.43727C7.69442 6.43727 7.72335 6.06612 6.96162 5.3702C6.50844 4.94337 6.05524 4.6186 5.4285 4.73923ZM28.6757 6.07541C28.1357 6.35377 27.4512 6.94761 26.2459 7.71776C24.8189 8.6271 23.305 9.65706 22.8519 10.0375C22.0708 10.687 22.7169 10.854 23.6907 10.2416C24.0186 10.0375 25.0117 9.44364 25.8988 8.9333C28.0104 7.70848 30.1702 6.34449 30.1702 6.2517C30.1799 5.88982 29.2542 5.77848 28.6757 6.07541ZM15.5431 6.64141C15.3696 6.80842 15.3985 7.68992 15.5817 7.86622C16.2374 8.49719 17.0859 7.35588 16.4784 6.65999C16.3434 6.50225 15.6974 6.49295 15.5431 6.64141ZM7.65586 7.49507C7.42444 7.65281 7.52086 7.78271 9.05396 9.36013C10.857 11.2159 11.021 11.3087 11.802 10.9654C12.1587 10.8076 12.1202 10.7334 11.3488 9.88903C9.37215 7.7456 8.29224 7.04968 7.65586 7.49507ZM2.17908 9.52715C1.82232 9.78696 2.04413 9.91687 4.24254 10.752C6.45059 11.5871 7.65585 12.1809 9.34323 13.2295C10.2978 13.8233 11.8888 13.8511 11.3874 13.2573C10.2496 11.9582 2.92153 8.9797 2.17908 9.52715ZM29.0228 11.2716C23.6907 13.1088 23.2761 13.3037 23.6425 13.6563C23.8161 13.8233 24.0764 13.7955 25.1756 13.48C32.3686 11.4201 32.5036 11.4943 31.6262 10.8819C31.173 10.5664 30.9705 10.5942 29.0228 11.2716ZM20.2485 11.652C19.5157 12.2644 19.4482 12.4593 19.9014 12.5799C20.8174 12.8119 22.0998 11.5964 22.0901 11.6056C22.1383 11.5592 22.1769 11.4943 22.1673 11.4293C22.1673 11.3644 22.1287 11.2994 22.0805 11.253C21.608 10.8726 21.0199 11.0025 20.2485 11.652ZM15.4178 12.7655L15.2153 13.5078C14.82 14.9924 13.7304 16.2729 12.8722 16.2729C12.2455 16.2729 12.6216 16.7833 13.3254 16.8946C14.2607 17.0338 15.0899 18.5556 15.1285 20.0402C15.1574 21.0423 16.2181 21.0609 16.4206 20.3371C16.9509 18.4628 17.3848 17.7112 18.5129 16.8761C19.2071 16.3657 19.2168 16.2729 18.6286 15.8925C17.6837 15.2801 17.4619 14.9553 16.9027 13.3594C16.2759 11.5592 15.572 12.218 15.4178 12.7655ZM1.68737 13.4521C1.49453 13.6377 1.49449 13.8883 1.69698 14.2965C1.94767 14.7976 2.29483 14.9089 5.11033 15.2987C6.03598 15.4286 7.18339 15.6234 7.65586 15.7348C8.62971 15.9667 8.71649 15.9203 8.64899 15.3265C8.5815 14.7698 8.36937 14.5563 7.75228 14.3708C6.83627 14.111 6.60486 14.0646 4.64748 13.7676C3.61577 13.6099 2.60335 13.4429 2.38158 13.3965C1.85126 13.2851 1.87057 13.2851 1.68737 13.4521ZM16.4398 15.2337C16.6327 15.5121 16.9316 15.7626 17.3269 15.9853C17.9729 16.3472 18.0308 16.4121 17.7415 16.5049C17.4523 16.5977 16.7098 17.2194 16.3723 17.6555L16.0734 18.0452L15.8035 17.6277C15.5335 17.2194 14.9067 16.7091 14.5307 16.5977C14.3571 16.542 14.3861 16.4956 14.82 16.1338C15.6685 15.4193 15.8613 14.3615 16.0445 14.6677C16.1024 14.7419 16.2759 15.0017 16.4398 15.2337ZM21.6177 16.0874C21.2031 16.2451 21.7623 17.1266 22.3505 17.2287C23.3532 17.4143 27.7693 17.3957 27.7693 17.2101C27.7693 16.941 27.239 16.3936 26.8726 16.2822C26.3327 16.1245 21.9648 15.9575 21.6177 16.0874ZM28.29 16.4028C28.0972 16.8946 28.9264 17.34 30.3727 17.507C31.8383 17.6741 32.0312 17.572 31.4623 16.9132C30.9802 16.375 28.4636 15.9667 28.29 16.4028ZM9.29502 16.9874C8.78398 17.4792 9.48786 18.4349 10.3267 18.3885C10.9053 18.3607 11.0499 18.0731 10.7895 17.4699C10.5774 16.9596 9.64213 16.6627 9.29502 16.9874ZM5.3996 17.4421C4.21361 17.6741 2.55517 17.9432 1.63916 18.0359C0.395328 18.1751 0 18.2772 0 18.4906C0 18.8618 0.819572 19.2886 1.38846 19.2144C1.60058 19.1865 2.34304 19.0937 3.03727 19.0195C5.86242 18.6855 7.81013 18.1937 7.61729 17.8596C7.33766 17.3586 6.55665 17.2101 5.3996 17.4421ZM23.2472 19.7711C21.8684 20.4114 23.4979 21.4413 24.9828 20.866C25.4456 20.6897 25.031 20.1515 24.5682 19.9567C23.8064 19.6319 23.6136 19.6041 23.2472 19.7711ZM20.0556 20.4299C19.4964 20.6062 19.3421 21.0794 19.7567 21.3949C19.911 21.5155 20.7499 22.23 21.6273 22.9816C25.2431 26.0993 26.2941 26.8509 26.7473 26.6561C27.4704 26.3406 26.9305 25.7189 23.0929 22.527C21.0102 20.7918 20.3449 20.3371 20.0556 20.4299ZM11.1077 21.1073C10.5099 21.3949 5.01391 26.9066 5.01391 27.2128C5.01391 27.8067 6.31556 27.6396 6.95198 26.9623C7.43409 26.4519 8.90933 24.9673 10.9727 22.9352C12.8048 21.1258 12.8722 20.2536 11.1077 21.1073ZM26.4484 21.4228C26.1398 21.5527 25.9181 21.9795 26.1013 22.1094C28.5793 23.7796 29.8038 24.1044 29.8038 23.0837C29.7942 22.5084 27.0751 21.1629 26.4484 21.4228ZM5.01391 22.4991C3.56759 23.2043 3.52902 23.2414 3.90506 23.4734C4.61858 23.9188 8.04154 22.4434 7.37623 21.9702C6.97126 21.6826 6.44095 21.8032 5.01391 22.4991ZM15.8806 22.5177C15.4371 22.8424 15.2731 24.3085 16.3627 24.3271C16.787 24.3363 17.1051 23.9095 17.0859 23.195C17.0666 22.4527 16.4398 22.1001 15.8806 22.5177ZM12.689 23.7239C11.9948 24.5405 10.3074 27.2592 10.3074 27.5654C10.3074 28.382 11.9562 26.5355 13.3254 24.16C13.8943 23.195 13.4122 22.8703 12.689 23.7239ZM19.5639 23.7518C19.1686 24.2157 22.6976 28.4284 23.2665 28.1778C23.7679 27.9551 23.6039 27.6768 21.8491 25.7467C20.0267 23.7147 19.776 23.5012 19.5639 23.7518ZM15.9288 25.9045C15.5046 26.1643 15.2153 31.4811 15.6203 31.7873C16.4977 32.474 16.8737 31.5182 16.8641 28.6232C16.8641 26.0158 16.6713 25.4591 15.9288 25.9045Z" fill="black"/>
</svg>
