<svg width="104" height="115" viewBox="0 0 104 115" fill="none" xmlns="http://www.w3.org/2000/svg">
<path fill-rule="evenodd" clip-rule="evenodd" d="M10.3576 29.4606C10.3576 29.4607 10.3611 29.4591 10.3673 29.4551C10.3707 29.453 10.3741 29.4506 10.3775 29.448C10.3876 29.4401 10.3974 29.4306 10.4055 29.4205C10.4067 29.419 10.4077 29.4175 10.4088 29.4162C10.4123 29.4114 10.4128 29.405 10.41 29.3997V29.3997C10.4092 29.3982 10.4083 29.3966 10.4074 29.395C10.4009 29.3838 10.3926 29.3729 10.3837 29.3636C10.3808 29.3606 10.3778 29.3577 10.3747 29.3551C10.3691 29.3502 10.3658 29.3481 10.3659 29.3482C10.3661 29.3483 10.372 29.352 10.3861 29.3578L10.5271 29.4155C10.4782 29.429 10.4288 29.4418 10.379 29.4541C10.3641 29.4577 10.3577 29.4606 10.3576 29.4606ZM10.5939 19.8882C10.5995 19.8907 10.6068 19.8938 10.6161 19.8972L10.8854 19.9948C15.4392 21.6458 15.1397 28.1481 10.5271 29.4155L11.4626 29.7985C16.035 31.6701 15.7635 38.2349 11.0522 39.7227L10.7056 39.8321C10.6575 39.8473 10.6372 39.8616 10.6325 39.865C10.6271 39.8689 10.6246 39.8718 10.6219 39.8756C10.6145 39.8861 10.5963 39.9212 10.5951 39.9797C10.5938 40.0381 10.6106 40.0741 10.6175 40.0848C10.62 40.0888 10.6224 40.0917 10.6276 40.0958C10.6322 40.0995 10.6519 40.1146 10.6993 40.1318L11.0179 40.2473C15.6331 41.9206 15.3879 48.5293 10.6614 49.856V49.856C10.6418 49.8615 10.6268 49.8775 10.6255 49.8978C10.6254 49.899 10.6254 49.9003 10.6253 49.9015C10.6252 49.9028 10.6252 49.904 10.6252 49.9053C10.6248 49.9256 10.6384 49.9428 10.6574 49.95V49.95L18.4779 52.8768C19.2022 53.1388 19.796 53.731 20.0287 54.5269C20.4162 55.8522 19.656 57.2406 18.3308 57.6281L10.6182 59.8831V59.8831C10.6038 59.8873 10.593 59.8995 10.5923 59.9144C10.5923 59.9151 10.5923 59.9159 10.5923 59.9166C10.5922 59.9173 10.5922 59.918 10.5922 59.9187C10.5919 59.9337 10.6019 59.9465 10.616 59.9516V59.9516L10.8853 60.0492C15.1052 61.5792 15.1574 67.2752 11.4718 69.1108C11.1776 69.2573 11.1583 69.7284 11.4625 69.8529V69.8529C16.0349 71.7246 15.7634 78.2894 11.0521 79.7771L10.7055 79.8865C10.6574 79.9017 10.637 79.916 10.6324 79.9195C10.627 79.9234 10.6244 79.9262 10.6218 79.93C10.6144 79.9405 10.5962 79.9757 10.5949 80.0341C10.5937 80.0926 10.6104 80.1285 10.6174 80.1393C10.6199 80.1432 10.6223 80.1461 10.6275 80.1503C10.6321 80.1539 10.6518 80.1691 10.6992 80.1863L11.0177 80.3017C15.633 81.975 15.3878 88.5838 10.6612 89.9104C10.6545 89.9123 10.6486 89.9142 10.6435 89.9159V89.9159C10.6354 89.9187 10.6292 89.9254 10.6277 89.9338C10.6264 89.9404 10.6255 89.9478 10.6252 89.956C10.6251 89.9572 10.6251 89.9585 10.6251 89.9597C10.6247 89.98 10.6382 89.9973 10.6573 90.0044V90.0044L18.5055 92.9416C19.7986 93.4256 20.4546 94.8662 19.9706 96.1593C19.4867 97.4524 18.0461 98.1084 16.7529 97.6244L8.90472 94.6872C4.33178 92.9758 4.609 86.416 9.31002 85.0965C9.31541 85.095 9.32025 85.0935 9.32455 85.0921C9.32852 85.0908 9.33204 85.0895 9.33515 85.0884V85.0884C9.33865 85.0871 9.3413 85.0841 9.34217 85.0805C9.34409 85.0724 9.34566 85.0623 9.34609 85.0507C9.34614 85.0494 9.34617 85.0482 9.34619 85.047C9.34649 85.0266 9.33271 85.0093 9.31352 85.0023V85.0023L8.99499 84.8869C4.35962 83.2063 4.49815 76.6033 9.19992 75.1186L9.54647 75.0092C9.6499 74.9765 9.67891 74.9386 9.69154 74.9211C9.71402 74.89 9.73965 74.8321 9.74295 74.7524C9.74624 74.6726 9.72548 74.6129 9.70565 74.58C9.6945 74.5615 9.66872 74.5213 9.56834 74.4803L8.49181 74.0396C4.14722 72.2612 4.51545 66.055 8.90784 64.7289C8.94455 64.7179 8.94784 64.6653 8.91179 64.6522V64.6522C4.33488 62.9928 4.54224 56.4503 9.21502 55.084V55.084C9.37591 55.037 9.38419 54.8122 9.2272 54.7534L8.90485 54.6328C4.3319 52.9213 4.60913 46.3616 9.31014 45.042V45.042C9.32981 45.0365 9.34483 45.0203 9.34604 44.9999C9.34611 44.9987 9.34617 44.9975 9.34622 44.9962C9.34626 44.995 9.34629 44.9937 9.34631 44.9925C9.34662 44.9721 9.33284 44.9549 9.31364 44.9479V44.9479L8.99512 44.8324C4.35975 43.1518 4.49827 36.5488 9.20005 35.0642L9.5466 34.9547C9.65003 34.9221 9.67903 34.8842 9.69167 34.8667C9.71415 34.8355 9.73977 34.7777 9.74307 34.6979C9.74637 34.6182 9.7256 34.5584 9.70577 34.5256C9.69462 34.5071 9.66884 34.4669 9.56847 34.4258L8.49193 33.9851C4.14735 32.2067 4.51558 26.0006 8.90796 24.6745C8.94467 24.6634 8.94797 24.6108 8.91191 24.5978V24.5978C4.335 22.9384 4.54236 16.3958 9.21514 15.0296L14.5282 13.4761C15.8534 13.0886 17.2419 13.8488 17.6293 15.1741V15.1741C18.0168 16.4993 17.2566 17.8877 15.9314 18.2752L10.6183 19.8286C10.6088 19.8314 10.6013 19.834 10.5956 19.8362C10.596 19.834 10.5966 19.832 10.5971 19.8302C10.5974 19.829 10.5978 19.8278 10.5981 19.8268C10.5993 19.8232 10.6002 19.8215 10.6002 19.8215C10.6002 19.8214 10.6 19.822 10.5993 19.823C10.5989 19.8237 10.5982 19.8246 10.5974 19.8257C10.5926 19.8324 10.5859 19.8389 10.5803 19.8428C10.5781 19.8444 10.5788 19.8436 10.5835 19.8413C10.5859 19.8402 10.5899 19.8384 10.5956 19.8362C10.594 19.8432 10.5927 19.852 10.5924 19.8621C10.5921 19.8722 10.5928 19.8811 10.5939 19.8882ZM10.5939 19.8882C10.5884 19.8856 10.5846 19.8836 10.5822 19.8823C10.5776 19.8797 10.577 19.8789 10.5791 19.8806C10.5844 19.8849 10.5907 19.8918 10.5951 19.8988C10.5969 19.9016 10.5976 19.9032 10.5976 19.9032C10.5976 19.9032 10.5973 19.9025 10.5969 19.9011C10.5966 19.9003 10.5963 19.8992 10.5959 19.8978C10.5952 19.8951 10.5945 19.8919 10.5939 19.8882Z" fill="black"/>
<path d="M10.3674 29.4551L10.6376 29.8759L10.6376 29.8759L10.3674 29.4551ZM10.3578 29.4606L10.6593 29.8595L10.6619 29.8575L10.3578 29.4606ZM10.3776 29.448L10.683 29.8439L10.683 29.8439L10.3776 29.448ZM10.4056 29.4205L10.7969 29.7317L10.7969 29.7317L10.4056 29.4205ZM10.4075 29.395L10.8403 29.1447L10.8403 29.1447L10.4075 29.395ZM10.3838 29.3636L10.7442 29.017H10.7442L10.3838 29.3636ZM10.3749 29.3551L10.704 28.9787L10.7039 28.9786L10.3749 29.3551ZM10.3661 29.3482L10.6873 28.965L10.6869 28.9647L10.3661 29.3482ZM10.3862 29.3578L10.1968 29.8205L10.1968 29.8205L10.3862 29.3578ZM10.3791 29.4541L10.2598 28.9685L10.2598 28.9685L10.3791 29.4541ZM10.6163 19.8972L10.7867 19.4271L10.7867 19.4271L10.6163 19.8972ZM10.8855 19.9948L10.7151 20.4649L10.8855 19.9948ZM11.4627 29.7985L11.6521 29.3357H11.6521L11.4627 29.7985ZM11.0523 39.7227L10.9018 39.2459H10.9018L11.0523 39.7227ZM10.7058 39.8321L10.8563 40.3089L10.8563 40.3089L10.7058 39.8321ZM10.6326 39.865L10.3371 39.4617L10.337 39.4617L10.6326 39.865ZM10.622 39.8756L10.2133 39.5876L10.2133 39.5876L10.622 39.8756ZM10.6176 40.0848L11.0382 39.8144L11.0381 39.8142L10.6176 40.0848ZM10.6278 40.0958L10.94 39.7053L10.94 39.7053L10.6278 40.0958ZM10.6995 40.1318L10.8699 39.6618L10.8699 39.6618L10.6995 40.1318ZM11.018 40.2473L10.8476 40.7174L10.8476 40.7174L11.018 40.2473ZM18.478 52.8768L18.3028 53.3451L18.3079 53.347L18.478 52.8768ZM20.0289 54.5269L19.549 54.6672L20.0289 54.5269ZM18.3309 57.6281L18.1906 57.1481L18.3309 57.6281ZM10.5924 59.9166L11.0921 59.9324V59.9324L10.5924 59.9166ZM10.8854 60.0492L11.0558 59.5792L11.0558 59.5792L10.8854 60.0492ZM11.0522 79.7771L10.9016 79.3003H10.9016L11.0522 79.7771ZM10.7056 79.8865L10.8562 80.3633L10.8562 80.3633L10.7056 79.8865ZM10.6325 79.9195L10.9279 80.3229L10.9282 80.3226L10.6325 79.9195ZM10.6219 79.93L11.0306 80.218L11.0306 80.218L10.6219 79.93ZM10.6175 80.1393L10.197 80.4098L10.1971 80.41L10.6175 80.1393ZM10.6276 80.1503L10.3153 80.5407L10.3154 80.5408L10.6276 80.1503ZM10.6993 80.1863L10.8698 79.7162H10.8698L10.6993 80.1863ZM11.0179 80.3017L11.1883 79.8317H11.1883L11.0179 80.3017ZM10.6614 89.9104L10.7963 90.3919L10.7965 90.3918L10.6614 89.9104ZM10.6253 89.956L10.1257 89.9349L10.1257 89.9349L10.6253 89.956ZM18.5056 92.9416L18.3304 93.4099H18.3304L18.5056 92.9416ZM16.7531 97.6244L16.9283 97.1561H16.9283L16.7531 97.6244ZM8.90485 94.6872L8.72959 95.1555L8.90485 94.6872ZM9.31014 85.0965L9.17532 84.615L9.17502 84.6151L9.31014 85.0965ZM9.32468 85.0921L9.48033 85.5672L9.48089 85.567L9.32468 85.0921ZM9.34622 85.0507L8.84656 85.0321L8.84656 85.0322L9.34622 85.0507ZM8.99512 84.8869L9.16555 84.4168L9.16554 84.4168L8.99512 84.8869ZM9.20005 75.1186L9.35061 75.5954L9.35061 75.5954L9.20005 75.1186ZM9.5466 75.0092L9.39605 74.5324H9.39604L9.5466 75.0092ZM9.69167 74.9211L10.097 75.2138L10.097 75.2138L9.69167 74.9211ZM9.74307 74.7524L9.2435 74.7317L9.74307 74.7524ZM9.70577 74.58L9.2776 74.8382L9.27761 74.8382L9.70577 74.58ZM9.56847 74.4803L9.37905 74.943H9.37905L9.56847 74.4803ZM8.49193 74.0396L8.30252 74.5023H8.30252L8.49193 74.0396ZM8.90498 54.6328L9.08023 54.1645H9.08023L8.90498 54.6328ZM9.34634 44.9962L8.84669 44.9777L8.84668 44.9777L9.34634 44.9962ZM8.99525 44.8324L9.16567 44.3624H9.16567L8.99525 44.8324ZM9.20017 35.0642L9.35073 35.5409L9.20017 35.0642ZM9.54672 34.9547L9.39617 34.4779H9.39617L9.54672 34.9547ZM9.6918 34.8667L9.28642 34.574L9.28642 34.574L9.6918 34.8667ZM9.7059 34.5256L9.27773 34.7838L9.27774 34.7838L9.7059 34.5256ZM9.56859 34.4258L9.37918 34.8885H9.37918L9.56859 34.4258ZM8.49206 33.9851L8.30265 34.4479L8.49206 33.9851ZM9.21527 15.0296L9.35559 15.5095L9.21527 15.0296ZM10.6184 19.8286L10.4781 19.3487L10.4781 19.3487L10.6184 19.8286ZM10.5972 19.8302L10.1165 19.6926L10.1165 19.6926L10.5972 19.8302ZM10.5983 19.8268L10.124 19.6685L10.1239 19.6686L10.5983 19.8268ZM10.6003 19.8215L10.1678 19.5707L10.1667 19.5726L10.6003 19.8215ZM10.5994 19.823L10.1773 19.555L10.1773 19.5551L10.5994 19.823ZM10.5976 19.8257L10.1934 19.5314L10.1933 19.5315L10.5976 19.8257ZM10.5804 19.8428L10.2924 19.4341L10.2923 19.4342L10.5804 19.8428ZM10.5837 19.8413L10.8 20.2921L10.8 20.2921L10.5837 19.8413ZM10.5925 19.8621L11.0923 19.878V19.878L10.5925 19.8621ZM10.5824 19.8823L10.3379 20.3185L10.3379 20.3185L10.5824 19.8823ZM10.5792 19.8806L10.8926 19.491L10.8925 19.4909L10.5792 19.8806ZM10.5953 19.8988L11.0174 19.6308L11.0173 19.6307L10.5953 19.8988ZM10.597 19.9011L10.1218 20.0567L10.1218 20.0568L10.597 19.9011ZM10.596 19.8978L11.0794 19.7699L11.0794 19.7698L10.596 19.8978ZM8.90809 24.6745L9.0526 25.1532L8.90809 24.6745ZM8.91204 24.5978L8.74162 25.0678L8.74162 25.0678L8.91204 24.5978ZM9.34644 44.9925L9.84638 45.0001L9.34644 44.9925ZM9.31377 44.9479L9.48419 44.4778L9.48419 44.4778L9.31377 44.9479ZM9.34616 44.9999L9.84529 45.0295L9.34616 44.9999ZM9.21515 55.084L9.07483 54.6041H9.07483L9.21515 55.084ZM9.22733 54.7534L9.05207 55.2217L9.22733 54.7534ZM10.6278 89.9338L11.1194 90.0252L10.6278 89.9338ZM8.90796 64.7289L9.05247 65.2076L8.90796 64.7289ZM8.91192 64.6522L8.74149 65.1223L8.7415 65.1223L8.91192 64.6522ZM9.34631 85.047L9.84626 85.0545L9.34631 85.047ZM9.31364 85.0023L9.14321 85.4724H9.14322L9.31364 85.0023ZM10.6252 89.9597L10.1253 89.9498L10.6252 89.9597ZM10.6574 90.0044L10.8326 89.5361H10.8326L10.6574 90.0044ZM9.33527 85.0884L9.16107 84.6197L9.16032 84.62L9.33527 85.0884ZM9.34229 85.0805L9.82882 85.1958L9.34229 85.0805ZM10.6183 59.8831L10.478 59.4032L10.4779 59.4032L10.6183 59.8831ZM10.5925 59.9144L10.093 59.8916L10.5925 59.9144ZM10.6256 49.8978L10.1267 49.8653L10.6256 49.8978ZM10.4089 29.4162L10.8119 29.7121L10.4089 29.4162ZM10.4101 29.3997L9.96781 29.6329L9.96787 29.633L10.4101 29.3997ZM10.5923 59.9187L10.0924 59.9098L10.5923 59.9187ZM10.6161 59.9516L10.4457 60.4217L10.4457 60.4217L10.6161 59.9516ZM11.4719 69.1108L11.6948 69.5583L11.4719 69.1108ZM11.4626 69.8529L11.652 69.3902H11.652L11.4626 69.8529ZM10.6253 49.9053L10.1254 49.8954L10.6253 49.9053ZM10.6575 49.95L10.8328 49.4817L10.8328 49.4817L10.6575 49.95ZM10.0973 29.0344C10.106 29.0288 10.1156 29.0232 10.1261 29.0176C10.1313 29.0149 10.1371 29.0119 10.1436 29.0088C10.1467 29.0074 10.151 29.0053 10.1563 29.003C10.1582 29.0022 10.1637 28.9998 10.1708 28.9969C10.1716 28.9966 10.1843 28.9914 10.2006 28.986C10.2054 28.9844 10.2151 28.9812 10.2275 28.9779C10.2317 28.9767 10.2693 28.9661 10.3182 28.9622C10.3297 28.9613 10.4182 28.9522 10.5221 28.9884C10.5817 29.0136 10.7104 29.1061 10.7706 29.1786C10.8218 29.2743 10.8577 29.4681 10.8484 29.5571C10.8178 29.7126 10.7214 29.8039 10.7168 29.8086C10.6914 29.8348 10.6687 29.8524 10.6593 29.8595L10.0562 29.0618C10.0468 29.0689 10.0242 29.0864 9.99876 29.1126C9.99414 29.1174 9.89774 29.2086 9.86715 29.3641C9.85781 29.4532 9.89375 29.6469 9.94486 29.7426C10.0051 29.8151 10.1338 29.9077 10.1934 29.9328C10.2973 29.969 10.3858 29.96 10.3973 29.9591C10.4462 29.9552 10.4838 29.9445 10.488 29.9434C10.5004 29.94 10.5101 29.9369 10.5149 29.9353C10.5312 29.9299 10.544 29.9247 10.5448 29.9243C10.552 29.9214 10.5575 29.919 10.5595 29.9181C10.565 29.9157 10.5697 29.9135 10.5731 29.9119C10.5805 29.9084 10.5876 29.9048 10.5944 29.9012C10.6083 29.8938 10.6227 29.8854 10.6376 29.8759L10.0973 29.0344ZM10.0722 29.0521C10.0794 29.0465 10.0877 29.0405 10.0973 29.0344L10.6376 29.8759C10.6539 29.8654 10.6691 29.8546 10.683 29.8439L10.0722 29.0521ZM10.0143 29.1092C10.0324 29.0865 10.0517 29.0679 10.0722 29.0521L10.683 29.8439C10.7238 29.8124 10.7628 29.7746 10.7969 29.7317L10.0143 29.1092ZM10.0059 29.1202C10.0087 29.1164 10.0115 29.1128 10.0143 29.1092L10.7969 29.7317C10.8021 29.7252 10.8071 29.7186 10.8119 29.7121L10.0059 29.1202ZM9.97461 29.6452C9.97232 29.6412 9.97005 29.6371 9.96781 29.6329L10.8524 29.1665C10.8486 29.1592 10.8445 29.152 10.8403 29.1447L9.97461 29.6452ZM10.0235 29.7102C10.0056 29.6916 9.98916 29.6704 9.97461 29.6452L10.8403 29.1447C10.8129 29.0972 10.7799 29.0542 10.7442 29.017L10.0235 29.7102ZM10.0457 29.7314C10.0372 29.724 10.0298 29.7169 10.0235 29.7102L10.7442 29.017C10.7319 29.0043 10.7185 28.9914 10.704 28.9787L10.0457 29.7314ZM10.6869 28.9647C10.6914 28.9685 10.7106 28.9845 10.7323 29.0078C10.741 29.0172 10.7686 29.0471 10.7952 29.0916C10.8089 29.116 10.837 29.1803 10.8495 29.2206C10.8621 29.2851 10.8563 29.4465 10.8284 29.5386C10.6974 29.8568 10.3758 29.8484 10.3593 29.8482C10.2913 29.8472 10.2398 29.8322 10.2271 29.8285C10.1914 29.8182 10.1648 29.806 10.1597 29.8036C10.1425 29.7958 10.1295 29.7887 10.1269 29.7873C10.1218 29.7845 10.1178 29.7822 10.1156 29.7809C10.1078 29.7764 10.1018 29.7727 10.1002 29.7717C10.0951 29.7685 10.091 29.7658 10.0882 29.7639C10.0821 29.7598 10.0767 29.756 10.072 29.7525C10.0623 29.7454 10.0536 29.7383 10.0458 29.7315L10.7039 28.9786C10.6905 28.9669 10.6774 28.9564 10.6647 28.9471C10.6584 28.9424 10.6519 28.9378 10.645 28.9332C10.6418 28.9311 10.6374 28.9282 10.6321 28.9249C10.6305 28.9238 10.6244 28.92 10.6166 28.9155C10.6143 28.9142 10.6103 28.9119 10.6053 28.9091C10.6027 28.9077 10.5896 28.9006 10.5724 28.8928C10.5673 28.8905 10.5407 28.8782 10.505 28.8679C10.4924 28.8642 10.4409 28.8492 10.3729 28.8483C10.3563 28.848 10.0348 28.8396 9.90373 29.1578C9.87582 29.2499 9.87007 29.4113 9.88263 29.4758C9.89512 29.5162 9.92324 29.5804 9.93691 29.6048C9.96351 29.6493 9.99109 29.6792 9.99986 29.6886C10.0215 29.7119 10.0407 29.7279 10.0453 29.7317L10.6869 28.9647ZM10.5756 28.8951C10.5808 28.8972 10.5887 28.9007 10.5988 28.9059C10.6039 28.9084 10.6098 28.9116 10.6164 28.9154C10.6196 28.9173 10.6235 28.9196 10.628 28.9223C10.6301 28.9236 10.6333 28.9256 10.6371 28.9281C10.6389 28.9292 10.6422 28.9313 10.6463 28.9341C10.6482 28.9354 10.6518 28.9379 10.6563 28.9411C10.6586 28.9427 10.6621 28.9452 10.6663 28.9484C10.6697 28.951 10.6776 28.9569 10.6873 28.965L10.0449 29.7314C10.0609 29.7448 10.0745 29.7544 10.0758 29.7554C10.0803 29.7585 10.0839 29.761 10.0859 29.7624C10.09 29.7651 10.0934 29.7673 10.0952 29.7685C10.0991 29.771 10.1025 29.7731 10.1048 29.7745C10.1097 29.7775 10.1142 29.7802 10.1182 29.7825C10.1264 29.7872 10.1347 29.7917 10.143 29.7959C10.1596 29.8044 10.1775 29.8127 10.1968 29.8205L10.5756 28.8951ZM10.7167 28.9528L10.5756 28.8951L10.1968 29.8205L10.3378 29.8783L10.7167 28.9528ZM10.4983 29.9397C10.5526 29.9263 10.6064 29.9123 10.6597 29.8977L10.3948 28.9334C10.3503 28.9456 10.3053 28.9573 10.2598 28.9685L10.4983 29.9397ZM10.6619 29.8575C10.6468 29.8691 10.6341 29.8774 10.6277 29.8815C10.6204 29.8862 10.6143 29.8898 10.6102 29.8922C10.6022 29.8969 10.5957 29.9004 10.5923 29.9022C10.5853 29.9059 10.5797 29.9087 10.5773 29.9099C10.5718 29.9125 10.5674 29.9145 10.5655 29.9154C10.5609 29.9175 10.5572 29.9191 10.5549 29.9201C10.5499 29.9223 10.5455 29.924 10.542 29.9254C10.5348 29.9282 10.5285 29.9305 10.5231 29.9323C10.5122 29.936 10.5038 29.9383 10.4983 29.9396L10.2598 28.9685C10.2395 28.9735 10.2205 28.979 10.2027 28.9851C10.1938 28.9881 10.1849 28.9913 10.176 28.9948C10.1717 28.9965 10.1667 28.9985 10.1613 29.0008C10.1588 29.0019 10.1549 29.0036 10.1502 29.0057C10.1482 29.0066 10.1438 29.0087 10.1383 29.0114C10.1358 29.0125 10.1302 29.0153 10.1232 29.0191C10.1198 29.0209 10.1133 29.0243 10.1053 29.029C10.1017 29.0311 10.0794 29.044 10.0536 29.0638L10.6619 29.8575ZM10.7867 19.4271C10.7897 19.4282 10.7949 19.4302 10.802 19.4334L10.3861 20.3429C10.4043 20.3512 10.4242 20.3594 10.4458 20.3672L10.7867 19.4271ZM11.056 19.5247L10.7867 19.4271L10.4458 20.3672L10.7151 20.4649L11.056 19.5247ZM10.6597 29.8977C15.7393 28.5019 16.0711 21.343 11.056 19.5247L10.7151 20.4649C14.8076 21.9486 14.5404 27.7943 10.3948 28.9334L10.6597 29.8977ZM11.6521 29.3357L10.7166 28.9528L10.3378 29.8783L11.2733 30.2612L11.6521 29.3357ZM11.2029 40.1994C16.3602 38.5709 16.6574 31.3846 11.6521 29.3357L11.2733 30.2612C15.4128 31.9557 15.1671 37.899 10.9018 39.2459L11.2029 40.1994ZM10.8563 40.3089L11.2029 40.1994L10.9018 39.2459L10.5552 39.3553L10.8563 40.3089ZM10.9281 40.2683C10.9215 40.2732 10.9129 40.2792 10.903 40.2853C10.8938 40.2911 10.8854 40.2957 10.8783 40.2993C10.8641 40.3065 10.8559 40.309 10.8563 40.3089L10.5552 39.3553C10.456 39.3866 10.3865 39.4255 10.3371 39.4617L10.9281 40.2683ZM11.0308 40.1636C11.022 40.176 11.0062 40.197 10.9834 40.2203C10.9615 40.2427 10.9415 40.2586 10.9282 40.2683L10.337 39.4617C10.2875 39.4981 10.2468 39.54 10.2133 39.5876L11.0308 40.1636ZM11.0951 39.9902C11.0946 40.0113 11.0909 40.0361 11.082 40.0636C11.0744 40.087 11.0599 40.1221 11.0308 40.1636L10.2133 39.5876C10.1468 39.682 10.0985 39.8144 10.0953 39.9692L11.0951 39.9902ZM11.0381 39.8142C11.0655 39.8569 11.0785 39.8926 11.0851 39.9163C11.0928 39.9441 11.0955 39.9691 11.0951 39.9902L10.0953 39.9692C10.092 40.124 10.1347 40.2584 10.1972 40.3555L11.0381 39.8142ZM10.94 39.7053C10.9528 39.7156 10.9722 39.7323 10.9932 39.7556C11.015 39.7798 11.0299 39.8015 11.0382 39.8144L10.1971 40.3553C10.2287 40.4045 10.2676 40.4481 10.3156 40.4864L10.94 39.7053ZM10.8699 39.6618C10.8695 39.6616 10.8775 39.6645 10.8915 39.6723C10.8984 39.6762 10.9066 39.6811 10.9156 39.6873C10.9252 39.6938 10.9335 39.7002 10.94 39.7053L10.3155 40.4864C10.3635 40.5247 10.4313 40.5664 10.5291 40.6019L10.8699 39.6618ZM11.1884 39.7772L10.8699 39.6618L10.529 40.6019L10.8476 40.7174L11.1884 39.7772ZM10.7966 50.3374C15.9911 48.8793 16.2607 41.6162 11.1884 39.7772L10.8476 40.7174C15.0058 42.2249 14.7849 48.1793 10.5264 49.3746L10.7966 50.3374ZM11.125 49.9226C11.1249 49.9252 11.1247 49.9277 11.1246 49.9303L10.1267 49.8653C10.1264 49.8703 10.1261 49.8753 10.1259 49.8804L11.125 49.9226ZM11.1252 49.9151C11.1252 49.9176 11.1251 49.9201 11.125 49.9226L10.1259 49.8804C10.1257 49.8855 10.1255 49.8905 10.1254 49.8954L11.1252 49.9151ZM18.6533 52.4085L10.8328 49.4817L10.4823 50.4182L18.3028 53.3451L18.6533 52.4085ZM20.5088 54.3866C20.2294 53.4311 19.516 52.7206 18.6481 52.4066L18.3079 53.347C18.8887 53.5571 19.3629 54.0308 19.549 54.6672L20.5088 54.3866ZM18.4712 58.108C20.0615 57.643 20.9738 55.9769 20.5088 54.3866L19.549 54.6672C19.8589 55.7274 19.2508 56.8382 18.1906 57.1481L18.4712 58.108ZM10.7586 60.363L18.4712 58.108L18.1906 57.1481L10.478 59.4032L10.7586 60.363ZM11.0921 59.9324C11.0921 59.9341 11.092 59.9357 11.0919 59.9373L10.093 59.8916C10.0929 59.8946 10.0927 59.8976 10.0926 59.9007L11.0921 59.9324ZM11.0923 59.9276C11.0922 59.9292 11.0922 59.9308 11.0921 59.9324L10.0926 59.9007C10.0925 59.9038 10.0925 59.9068 10.0924 59.9098L11.0923 59.9276ZM11.0558 59.5792L10.7866 59.4816L10.4457 60.4217L10.715 60.5193L11.0558 59.5792ZM11.6948 69.5583C15.7528 67.5373 15.711 61.2669 11.0558 59.5792L10.715 60.5193C14.4996 61.8914 14.5623 67.0131 11.249 68.6632L11.6948 69.5583ZM11.2027 80.2539C16.3601 78.6253 16.6573 71.439 11.652 69.3902L11.2732 70.3157C15.4127 72.0101 15.1669 77.9534 10.9016 79.3003L11.2027 80.2539ZM10.8562 80.3633L11.2028 80.2539L10.9016 79.3003L10.5551 79.4097L10.8562 80.3633ZM10.9282 80.3226C10.9215 80.3276 10.9128 80.3336 10.9029 80.3397C10.8937 80.3455 10.8853 80.3501 10.8782 80.3537C10.8639 80.3609 10.8558 80.3634 10.8562 80.3633L10.5551 79.4097C10.456 79.441 10.3864 79.4799 10.3368 79.5163L10.9282 80.3226ZM11.0306 80.218C11.0219 80.2303 11.0062 80.2514 10.9834 80.2747C10.9614 80.2971 10.9413 80.3131 10.9279 80.3229L10.3371 79.516C10.2873 79.5525 10.2466 79.5946 10.2132 79.642L11.0306 80.218ZM11.0949 80.0446C11.0945 80.0657 11.0908 80.0906 11.0819 80.118C11.0743 80.1414 11.0598 80.1766 11.0306 80.218L10.2132 79.642C10.1467 79.7364 10.0984 79.8688 10.0952 80.0237L11.0949 80.0446ZM11.038 79.8688C11.0654 79.9113 11.0784 79.9471 11.085 79.9708C11.0927 79.9985 11.0954 80.0235 11.0949 80.0446L10.0952 80.0237C10.0919 80.1785 10.1346 80.3128 10.197 80.4098L11.038 79.8688ZM10.94 79.7599C10.9528 79.7702 10.9721 79.7868 10.9931 79.8101C11.0148 79.8342 11.0297 79.8558 11.0379 79.8686L10.1971 80.41C10.2286 80.4589 10.2674 80.5024 10.3153 80.5407L10.94 79.7599ZM10.8698 79.7162C10.8694 79.7161 10.8774 79.7189 10.8913 79.7267C10.8983 79.7306 10.9064 79.7356 10.9154 79.7417C10.9251 79.7483 10.9334 79.7546 10.9399 79.7598L10.3154 80.5408C10.3634 80.5792 10.4312 80.6209 10.5289 80.6563L10.8698 79.7162ZM11.1883 79.8317L10.8698 79.7162L10.5289 80.6563L10.8474 80.7718L11.1883 79.8317ZM10.7965 90.3918C15.991 88.9338 16.2605 81.6707 11.1883 79.8317L10.8474 80.7718C15.0057 82.2794 14.7847 88.2337 10.5262 89.429L10.7965 90.3918ZM10.8051 90.3891C10.8012 90.3905 10.7982 90.3914 10.7963 90.3919L10.5265 89.429C10.511 89.4333 10.4962 89.4379 10.4822 89.4427L10.8051 90.3891ZM11.1249 89.9771C11.1242 89.9934 11.1223 90.0094 11.1194 90.0252L10.1362 89.8425C10.1308 89.8713 10.1271 89.9022 10.1257 89.9349L11.1249 89.9771ZM11.1251 89.9696C11.125 89.9721 11.125 89.9746 11.1249 89.9771L10.1257 89.9349C10.1255 89.9399 10.1254 89.9449 10.1253 89.9498L11.1251 89.9696ZM18.6809 92.4733L10.8326 89.5361L10.4821 90.4727L18.3304 93.4099L18.6809 92.4733ZM20.439 96.3345C21.0198 94.7828 20.2326 93.0541 18.6809 92.4733L18.3304 93.4099C19.3648 93.7971 19.8896 94.9495 19.5025 95.984L20.439 96.3345ZM16.5778 98.0927C18.1296 98.6734 19.8583 97.8863 20.439 96.3345L19.5025 95.984C19.1153 97.0185 17.9628 97.5433 16.9283 97.1561L16.5778 98.0927ZM8.72959 95.1555L16.5778 98.0927L16.9283 97.1561L9.0801 94.2189L8.72959 95.1555ZM9.17502 84.6151C4.00851 86.0653 3.70383 93.2746 8.72959 95.1555L9.0801 94.2189C4.95997 92.677 5.20974 86.7667 9.44526 85.5779L9.17502 84.6151ZM9.16903 84.6169C9.17161 84.6161 9.17372 84.6154 9.17532 84.615L9.44496 85.578C9.45736 85.5745 9.46914 85.5709 9.48033 85.5672L9.16903 84.6169ZM9.16032 84.62C9.16356 84.6188 9.16629 84.6178 9.16847 84.6171L9.48089 85.567C9.491 85.5637 9.50078 85.5603 9.51023 85.5568L9.16032 84.62ZM8.84656 85.0322C8.84738 85.01 8.85043 84.9877 8.85576 84.9652L9.82882 85.1958C9.838 85.157 9.84419 85.1145 9.84587 85.0692L8.84656 85.0322ZM8.84637 85.0395C8.8464 85.037 8.84647 85.0346 8.84656 85.0321L9.84587 85.0692C9.84606 85.0643 9.84618 85.0594 9.84626 85.0545L8.84637 85.0395ZM8.82469 85.3569L9.14321 85.4724L9.48407 84.5323L9.16555 84.4168L8.82469 85.3569ZM9.04949 74.6418C3.89197 76.2704 3.74001 83.5134 8.8247 85.3569L9.16554 84.4168C4.97948 82.8991 5.10458 76.9362 9.35061 75.5954L9.04949 74.6418ZM9.39604 74.5324L9.04949 74.6418L9.35061 75.5954L9.69716 75.486L9.39604 74.5324ZM9.2863 74.6284C9.28627 74.6284 9.28965 74.6237 9.29454 74.6176C9.29963 74.6112 9.3059 74.6037 9.31331 74.5958C9.32862 74.5795 9.34453 74.5656 9.36005 74.5544C9.3904 74.5324 9.40811 74.5286 9.39605 74.5324L9.69715 75.486C9.78851 75.4571 9.87244 75.418 9.94631 75.3645C10.027 75.3061 10.0735 75.2464 10.097 75.2138L9.2863 74.6284ZM9.2435 74.7317C9.24386 74.723 9.24568 74.7102 9.25118 74.694C9.25616 74.6794 9.26602 74.6565 9.28629 74.6284L10.097 75.2138C10.1792 75.1001 10.2355 74.9468 10.2426 74.773L9.2435 74.7317ZM9.27761 74.8382C9.25973 74.8086 9.25179 74.785 9.24804 74.77C9.24389 74.7534 9.24314 74.7405 9.2435 74.7317L10.2426 74.773C10.2498 74.5993 10.2064 74.4419 10.1339 74.3218L9.27761 74.8382ZM9.37905 74.943C9.39076 74.9478 9.37344 74.9425 9.34501 74.9181C9.33047 74.9056 9.31575 74.8905 9.30184 74.8729C9.2951 74.8644 9.28947 74.8565 9.28493 74.8497C9.28056 74.8432 9.27758 74.8382 9.2776 74.8382L10.1339 74.3218C10.1132 74.2873 10.0718 74.224 9.99616 74.1591C9.92695 74.0998 9.84655 74.0538 9.75788 74.0175L9.37905 74.943ZM8.30252 74.5023L9.37905 74.943L9.75788 74.0175L8.68135 73.5769L8.30252 74.5023ZM8.76345 64.2503C3.92569 65.7108 3.51691 72.5434 8.30252 74.5023L8.68135 73.5769C4.77779 71.979 5.10546 66.3992 9.05247 65.2076L8.76345 64.2503ZM9.07483 54.6041C3.93811 56.106 3.71016 63.2981 8.74149 65.1223L9.08234 64.1822C4.95984 62.6875 5.14661 56.7945 9.35546 55.5639L9.07483 54.6041ZM8.72972 55.101L9.05207 55.2217L9.40258 54.2851L9.08023 54.1645L8.72972 55.101ZM9.17515 44.5606C4.00864 46.0108 3.70396 53.2201 8.72972 55.101L9.08023 54.1645C4.9601 52.6225 5.20987 46.7123 9.44539 45.5234L9.17515 44.5606ZM8.84668 44.9777C8.84678 44.9753 8.84689 44.9728 8.84704 44.9704L9.84529 45.0295C9.84558 45.0246 9.84581 45.0197 9.846 45.0148L8.84668 44.9777ZM8.84649 44.985C8.84653 44.9826 8.84659 44.9801 8.84669 44.9777L9.846 45.0148C9.84618 45.0098 9.84631 45.0049 9.84638 45.0001L8.84649 44.985ZM8.82482 45.3025L9.14334 45.418L9.48419 44.4778L9.16567 44.3624L8.82482 45.3025ZM9.04961 34.5874C3.89209 36.216 3.74013 43.459 8.82482 45.3025L9.16567 44.3624C4.97961 42.8447 5.10471 36.8817 9.35073 35.5409L9.04961 34.5874ZM9.39617 34.4779L9.04961 34.5874L9.35073 35.5409L9.69728 35.4315L9.39617 34.4779ZM9.28642 34.574C9.28639 34.574 9.28977 34.5693 9.29467 34.5631C9.29975 34.5567 9.30602 34.5493 9.31344 34.5414C9.32874 34.525 9.34466 34.5112 9.36018 34.4999C9.39053 34.478 9.40823 34.4741 9.39617 34.4779L9.69728 35.4315C9.78865 35.4027 9.87257 35.3635 9.94644 35.3101C10.0272 35.2516 10.0736 35.192 10.0972 35.1593L9.28642 34.574ZM9.24363 34.6773C9.24399 34.6686 9.2458 34.6557 9.25131 34.6396C9.25628 34.6249 9.26614 34.602 9.28642 34.574L10.0972 35.1593C10.1793 35.0456 10.2356 34.8924 10.2428 34.7186L9.24363 34.6773ZM9.27774 34.7838C9.25985 34.7541 9.25192 34.7305 9.24817 34.7155C9.24402 34.6989 9.24326 34.686 9.24363 34.6773L10.2428 34.7186C10.25 34.5448 10.2065 34.3875 10.1341 34.2673L9.27774 34.7838ZM9.37918 34.8885C9.39089 34.8933 9.37357 34.888 9.34513 34.8636C9.3306 34.8512 9.31588 34.836 9.30198 34.8185C9.29524 34.81 9.2896 34.8021 9.28506 34.7953C9.2807 34.7887 9.27771 34.7837 9.27773 34.7838L10.1341 34.2673C10.1133 34.2329 10.0719 34.1696 9.99628 34.1047C9.92708 34.0453 9.84667 33.9994 9.75801 33.9631L9.37918 34.8885ZM8.30265 34.4479L9.37918 34.8885L9.75801 33.9631L8.68147 33.5224L8.30265 34.4479ZM8.76358 24.1958C3.92582 25.6564 3.51704 32.489 8.30265 34.4479L8.68147 33.5224C4.77791 31.9245 5.10559 26.3448 9.0526 25.1532L8.76358 24.1958ZM9.07495 14.5497C3.93824 16.0515 3.71029 23.2437 8.74162 25.0678L9.08246 24.1277C4.95996 22.6331 5.14673 16.7401 9.35559 15.5095L9.07495 14.5497ZM14.388 12.9962L9.07495 14.5497L9.35559 15.5095L14.6687 13.956L14.388 12.9962ZM10.7588 20.3085L16.0718 18.7551L15.7912 17.7953L10.4781 19.3487L10.7588 20.3085ZM10.7744 20.3032C10.7672 20.306 10.7619 20.3076 10.7588 20.3085L10.4781 19.3487C10.456 19.3552 10.4357 19.3621 10.417 19.3692L10.7744 20.3032ZM10.1165 19.6926C10.1132 19.7041 10.1103 19.7157 10.1077 19.7273L11.0837 19.9452C11.0821 19.9524 11.0802 19.9599 11.0779 19.9678L10.1165 19.6926ZM10.1239 19.6686C10.1212 19.6768 10.1187 19.6848 10.1165 19.6926L11.0779 19.9678C11.0764 19.9731 11.0746 19.9788 11.0726 19.9849L10.1239 19.6686ZM10.1667 19.5726C10.143 19.6138 10.1299 19.6507 10.124 19.6685L11.0726 19.985C11.0693 19.9948 11.0654 20.0053 11.0608 20.0163C11.0585 20.0217 11.056 20.0275 11.0532 20.0335C11.0518 20.0364 11.0502 20.0397 11.0485 20.0432C11.0476 20.0449 11.0466 20.047 11.0453 20.0495C11.0447 20.0507 11.0438 20.0525 11.0426 20.0547C11.0425 20.0548 11.0389 20.0618 11.034 20.0704L10.1667 19.5726ZM11.0215 20.091C11.0262 20.0837 11.0307 20.0762 11.035 20.0687C11.0371 20.0649 11.0394 20.0608 11.0417 20.0563C11.0428 20.0544 11.0445 20.0511 11.0466 20.0469C11.0467 20.0468 11.0504 20.0395 11.0547 20.0302C11.0556 20.0281 11.0593 20.0202 11.0635 20.0099C11.0651 20.0059 11.0705 19.9927 11.0761 19.9752C11.0786 19.9674 11.0848 19.9478 11.0901 19.922C11.0927 19.9088 11.0974 19.8758 11.0991 19.856C11.1003 19.8247 11.0936 19.7397 11.0819 19.6869C11.0461 19.5949 10.8851 19.4105 10.7526 19.3452C10.6292 19.3223 10.4351 19.3496 10.3695 19.378C10.2799 19.4246 10.2271 19.4888 10.2262 19.4898C10.2013 19.5179 10.185 19.543 10.1837 19.545C10.1749 19.5582 10.1687 19.5691 10.1678 19.5707L11.0329 20.0722C11.032 20.0738 11.0257 20.0847 11.0169 20.0979C11.0156 20.0999 10.9994 20.1251 10.9745 20.1532C10.9736 20.1542 10.9208 20.2183 10.8312 20.265C10.7656 20.2934 10.5714 20.3206 10.4481 20.2977C10.3155 20.2324 10.1546 20.048 10.1188 19.956C10.1071 19.9032 10.1003 19.8182 10.1015 19.7869C10.1033 19.7672 10.108 19.7342 10.1106 19.7209C10.1158 19.6951 10.122 19.6755 10.1246 19.6677C10.1302 19.6503 10.1356 19.637 10.1372 19.633C10.1414 19.6227 10.145 19.6148 10.146 19.6127C10.1502 19.6035 10.154 19.5961 10.154 19.5961C10.1561 19.5919 10.1578 19.5887 10.1588 19.5868C10.1612 19.5824 10.1633 19.5785 10.1653 19.575C10.1693 19.568 10.1733 19.5613 10.1773 19.555L11.0215 20.091ZM11.0018 20.12C11.0089 20.1103 11.0155 20.1006 11.0216 20.0909L10.1773 19.5551C10.1825 19.5468 10.1879 19.539 10.1934 19.5314L11.0018 20.12ZM10.8685 20.2515C10.9202 20.2151 10.9659 20.1694 11.0018 20.1199L10.1933 19.5315C10.209 19.5099 10.2244 19.4929 10.2375 19.48C10.2501 19.4675 10.2682 19.4512 10.2924 19.4341L10.8685 20.2515ZM10.3674 19.3905C10.3537 19.3971 10.34 19.4043 10.3264 19.4122C10.3262 19.4124 10.3174 19.4175 10.3069 19.4243C10.3056 19.4251 10.3025 19.4272 10.2987 19.4298C10.2968 19.4311 10.2932 19.4335 10.2889 19.4366C10.2866 19.4382 10.275 19.4464 10.261 19.458C10.2522 19.4654 10.2271 19.4887 10.2114 19.505C10.1722 19.5533 10.0803 19.8764 10.1742 20.1368C10.3659 20.2959 10.6663 20.336 10.7208 20.3232C10.741 20.3167 10.7712 20.3053 10.7813 20.301C10.7973 20.2939 10.8095 20.2875 10.812 20.2862C10.8166 20.2837 10.8203 20.2817 10.8223 20.2806C10.829 20.2768 10.8342 20.2737 10.8348 20.2734C10.8367 20.2723 10.8382 20.2714 10.8391 20.2708C10.8426 20.2687 10.8453 20.2669 10.847 20.2659C10.8545 20.2611 10.8617 20.2563 10.8685 20.2515L10.2923 19.4342C10.2981 19.4301 10.3045 19.4258 10.3117 19.4213C10.3133 19.4202 10.316 19.4185 10.3194 19.4164C10.3203 19.4159 10.3218 19.415 10.3236 19.4139C10.3243 19.4135 10.3295 19.4104 10.3362 19.4067C10.3382 19.4056 10.3418 19.4036 10.3465 19.4011C10.349 19.3998 10.3611 19.3934 10.3772 19.3863C10.3873 19.3819 10.4175 19.3705 10.4377 19.3641C10.4922 19.3513 10.7925 19.3914 10.9843 19.5505C11.0782 19.8109 10.9863 20.134 10.9471 20.1823C10.9314 20.1986 10.9063 20.2218 10.8975 20.2293C10.8835 20.2408 10.8718 20.2491 10.8696 20.2507C10.8652 20.2538 10.8617 20.2562 10.8598 20.2575C10.8559 20.2601 10.8529 20.2621 10.8515 20.263C10.8411 20.2698 10.8325 20.2748 10.8324 20.2748C10.8199 20.2822 10.8089 20.2878 10.8 20.2921L10.3674 19.3905ZM10.4169 19.3693C10.3982 19.3764 10.3818 19.3836 10.3673 19.3906L10.8 20.2921C10.7904 20.2967 10.7817 20.3004 10.7744 20.3032L10.4169 19.3693ZM11.0923 19.878C11.0915 19.9005 11.0886 19.9229 11.0837 19.9452L10.1077 19.7273C10.0996 19.7636 10.0941 19.8036 10.0928 19.8463L11.0923 19.878ZM11.0879 19.8103C11.0915 19.8329 11.093 19.8554 11.0923 19.878L10.0928 19.8463C10.0914 19.889 10.0943 19.9292 10.1001 19.966L11.0879 19.8103ZM10.3379 20.3185C10.3518 20.3263 10.3678 20.3345 10.3861 20.3429L10.8019 19.4334C10.8092 19.4367 10.8175 19.4409 10.8268 19.4461L10.3379 20.3185ZM10.8925 19.4909C10.886 19.4857 10.8792 19.4804 10.872 19.4752C10.8703 19.474 10.8676 19.4721 10.8642 19.4697C10.8633 19.4691 10.8619 19.468 10.86 19.4668C10.8594 19.4664 10.8542 19.4628 10.8475 19.4585C10.8456 19.4573 10.8419 19.455 10.8373 19.4521C10.8348 19.4506 10.8228 19.4433 10.8069 19.4351C10.7969 19.4302 10.7674 19.417 10.7477 19.4094C10.6958 19.3938 10.4155 19.4069 10.2222 19.5285C10.0876 19.7824 10.1453 20.13 10.1836 20.1869C10.1991 20.2059 10.2243 20.233 10.2332 20.2417C10.2472 20.2551 10.259 20.2647 10.2612 20.2664C10.2656 20.27 10.2691 20.2728 10.271 20.2743C10.2749 20.2773 10.278 20.2796 10.2793 20.2806C10.2896 20.2883 10.2983 20.2941 10.2984 20.2942C10.3115 20.303 10.3247 20.3111 10.3379 20.3185L10.8268 19.4461C10.8354 19.4509 10.846 19.4573 10.8581 19.4655C10.8597 19.4666 10.8616 19.4678 10.8636 19.4693C10.8646 19.47 10.8659 19.4709 10.8675 19.472C10.8681 19.4724 10.872 19.4752 10.8769 19.4788C10.8782 19.4798 10.8813 19.4821 10.8852 19.4851C10.8871 19.4866 10.8906 19.4894 10.895 19.493C10.8972 19.4948 10.909 19.5044 10.923 19.5177C10.9319 19.5264 10.957 19.5535 10.9726 19.5726C11.0109 19.6294 11.0685 19.977 10.9339 20.231C10.7407 20.3525 10.4603 20.3657 10.4085 20.3501C10.3887 20.3425 10.3592 20.3293 10.3493 20.3243C10.3334 20.3161 10.3214 20.3088 10.3189 20.3073C10.3143 20.3045 10.3106 20.3022 10.3086 20.3009C10.3019 20.2966 10.2968 20.2931 10.2962 20.2927C10.2943 20.2914 10.2929 20.2904 10.292 20.2898C10.2886 20.2874 10.286 20.2855 10.2844 20.2844C10.2775 20.2794 10.2714 20.2746 10.2659 20.2702L10.8925 19.4909ZM11.0173 19.6307C10.9846 19.5791 10.9419 19.5306 10.8926 19.491L10.2659 20.2702C10.2428 20.2516 10.2258 20.2343 10.214 20.221C10.2018 20.2073 10.1875 20.1894 10.1732 20.1668L11.0173 19.6307ZM10.3741 20.3504C10.5911 20.4031 10.9806 20.2247 11.0805 20.0333C11.0943 19.962 11.0958 19.8594 11.0923 19.8295C11.0863 19.7896 11.0765 19.7588 11.0759 19.7569C11.071 19.7411 11.0664 19.7289 11.0658 19.7272C11.063 19.7199 11.0607 19.7143 11.0602 19.7131C11.0585 19.7091 11.0572 19.7059 11.0567 19.7047C11.0553 19.7016 11.0542 19.699 11.0534 19.6973C11.0517 19.6935 11.0501 19.69 11.0485 19.6869C11.0455 19.6805 11.0423 19.6742 11.0391 19.668C11.0325 19.6557 11.0253 19.6432 11.0174 19.6308L10.1731 20.1667C10.167 20.1571 10.1611 20.1469 10.1553 20.136C10.1524 20.1306 10.1496 20.1249 10.1467 20.1189C10.1453 20.1159 10.1437 20.1126 10.142 20.1089C10.1413 20.1072 10.1401 20.1047 10.1388 20.1016C10.1383 20.1004 10.1369 20.0973 10.1353 20.0933C10.1348 20.0921 10.1325 20.0864 10.1297 20.0791C10.1291 20.0775 10.1245 20.0653 10.1196 20.0494C10.119 20.0476 10.1091 20.0167 10.1032 19.9769C10.0997 19.947 10.1012 19.8444 10.115 19.773C10.2148 19.5816 10.6044 19.4032 10.8214 19.456L10.3741 20.3504ZM10.1218 20.0568C10.1246 20.0651 10.1275 20.0733 10.1306 20.0815C10.1322 20.0856 10.1339 20.0899 10.1358 20.0945C10.1367 20.0967 10.1379 20.0995 10.1393 20.1028C10.1399 20.1042 10.1412 20.1071 10.1428 20.1107C10.1434 20.112 10.1454 20.1163 10.148 20.1217C10.1489 20.1236 10.1524 20.1308 10.1573 20.1398C10.1591 20.1433 10.1654 20.1548 10.1743 20.1691C10.1783 20.1754 10.1884 20.1914 10.2032 20.2104C10.211 20.2201 10.2312 20.2433 10.2439 20.2565C10.2651 20.2765 10.3294 20.325 10.3741 20.3504L10.8214 19.456C10.8661 19.4813 10.9304 19.5299 10.9516 19.5499C10.9643 19.5631 10.9845 19.5863 10.9922 19.596C11.0071 19.615 11.0172 19.631 11.0212 19.6373C11.0301 19.6515 11.0363 19.6631 11.0382 19.6666C11.0431 19.6756 11.0465 19.6828 11.0475 19.6847C11.0501 19.6901 11.0521 19.6944 11.0527 19.6957C11.0543 19.6993 11.0555 19.7021 11.0561 19.7035C11.0576 19.7067 11.0587 19.7095 11.0596 19.7116C11.0614 19.716 11.063 19.7201 11.0645 19.7238C11.0674 19.7314 11.0699 19.7386 11.0722 19.7455L10.1218 20.0568ZM10.1127 20.0257C10.1154 20.0362 10.1185 20.0465 10.1218 20.0567L11.0722 19.7456C11.075 19.7541 11.0773 19.7622 11.0794 19.7699L10.1127 20.0257ZM10.1001 19.9661C10.1032 19.9852 10.1072 20.0053 10.1127 20.0257L11.0794 19.7698C11.0834 19.7849 11.0861 19.7985 11.0879 19.8103L10.1001 19.9661ZM14.6687 13.956C15.7288 13.646 16.8396 14.2542 17.1496 15.3144L18.1094 15.0337C17.6444 13.4435 15.9783 12.5312 14.388 12.9962L14.6687 13.956ZM9.0526 25.1532C9.29799 25.0791 9.42549 24.8626 9.43657 24.6648C9.44788 24.4629 9.33885 24.2207 9.08246 24.1277L8.74162 25.0678C8.52129 24.9879 8.42863 24.7785 8.43813 24.6089C8.4474 24.4435 8.5549 24.2588 8.76358 24.1958L9.0526 25.1532ZM9.84638 45.0001C9.85037 44.7348 9.67233 44.546 9.48419 44.4778L9.14334 45.4179C8.9936 45.3637 8.84312 45.2094 8.84649 44.985L9.84638 45.0001ZM9.44543 45.5234C9.63803 45.4693 9.82961 45.2943 9.84529 45.0295L8.84704 44.9704C8.8603 44.7463 9.02183 44.6037 9.17511 44.5606L9.44543 45.5234ZM9.35546 55.5639C9.97777 55.382 10.0098 54.5124 9.40258 54.2851L9.05207 55.2217C8.75882 55.1119 8.77429 54.692 9.07483 54.6041L9.35546 55.5639ZM10.4824 89.4426C10.3156 89.4995 10.1731 89.6439 10.1362 89.8425L11.1194 90.0252C11.0856 90.2069 10.9554 90.3379 10.8049 90.3892L10.4824 89.4426ZM9.05247 65.2076C9.29787 65.1335 9.42537 64.917 9.43644 64.7193C9.44775 64.5173 9.33872 64.2751 9.08233 64.1822L8.7415 65.1223C8.52116 65.0424 8.42851 64.833 8.43801 64.6634C8.44727 64.4979 8.55477 64.3133 8.76345 64.2503L9.05247 65.2076ZM9.84626 85.0545C9.85024 84.7892 9.67215 84.6005 9.48407 84.5323L9.14322 85.4724C8.99353 85.4181 8.843 85.2639 8.84637 85.0395L9.84626 85.0545ZM10.1253 89.9498C10.1201 90.2139 10.2958 90.4029 10.4821 90.4727L10.8326 89.5361C10.981 89.5916 11.1295 89.7461 11.1251 89.9696L10.1253 89.9498ZM9.50948 85.557C9.66467 85.4994 9.78824 85.3671 9.82882 85.1958L8.85576 84.9652C8.89462 84.8012 9.01289 84.6748 9.16107 84.6197L9.50948 85.557ZM10.4779 59.4032C10.2856 59.4595 10.1047 59.6363 10.093 59.8916L11.0919 59.9373C11.0816 60.1627 10.9222 60.3151 10.7588 60.363L10.4779 59.4032ZM10.5264 49.3746C10.335 49.4283 10.1438 49.6016 10.1267 49.8653L11.1246 49.9303C11.1101 50.1534 10.9488 50.2947 10.7966 50.3374L10.5264 49.3746ZM10.8119 29.7121C10.9288 29.5529 10.9444 29.341 10.8523 29.1664L9.96787 29.633C9.88134 29.469 9.89601 29.2698 10.0059 29.1202L10.8119 29.7121ZM10.0924 59.9098C10.0879 60.1654 10.2573 60.3533 10.4457 60.4217L10.7866 59.4816C10.9469 59.5397 11.0962 59.702 11.0923 59.9276L10.0924 59.9098ZM11.249 68.6632C10.9066 68.8337 10.7501 69.1765 10.743 69.4783C10.7358 69.7845 10.8847 70.1566 11.2732 70.3157L11.652 69.3902C11.6855 69.4039 11.7133 69.4303 11.729 69.4579C11.7425 69.4816 11.7428 69.4978 11.7427 69.5019C11.7426 69.5061 11.7418 69.5119 11.7368 69.5206C11.7309 69.531 11.7174 69.5471 11.6948 69.5583L11.249 68.6632ZM17.1496 15.3144C17.4595 16.3746 16.8514 17.4853 15.7912 17.7953L16.0718 18.7551C17.6621 18.2901 18.5743 16.624 18.1094 15.0337L17.1496 15.3144ZM10.1254 49.8954C10.1202 50.1595 10.2959 50.3485 10.4823 50.4183L10.8328 49.4817C10.9811 49.5372 11.1296 49.6917 11.1252 49.9151L10.1254 49.8954Z" fill="black"/>
<path d="M15.3768 10.5984L16.531 7.60485C17.6304 4.75343 21.5889 4.5546 22.9686 7.28149L23.0408 7.4243C23.5969 8.52331 24.7286 9.21611 25.9603 9.21611C27.3459 9.21611 28.5849 8.33808 29.0385 7.02879C29.9671 4.34849 33.6425 4.05897 34.9793 6.56082L35.73 7.96574C36.339 9.10547 37.5262 9.81717 38.8185 9.81717C40.1811 9.81717 41.4199 9.02673 41.9941 7.79101L42.3047 7.12237C43.6173 4.29739 47.6303 4.28825 48.9558 7.10721L49.0212 7.24625C49.5865 8.44859 50.7955 9.21611 52.1241 9.21611H52.2407C53.6041 9.21611 54.8236 8.36799 55.2981 7.08981C56.2934 4.40836 60.0125 4.2159 61.2793 6.7803L62.4475 9.14498C62.8933 10.0474 63.8126 10.6186 64.819 10.6186C65.894 10.6186 66.862 9.96809 67.2681 8.97286L68.0838 6.97406C69.1947 4.2519 72.9934 4.10257 74.3146 6.72912C74.8962 7.88541 76.0799 8.61506 77.3743 8.61506H77.8778C79.1791 8.61506 80.3369 7.78906 80.7604 6.5586C81.6239 4.04955 85.0585 3.76507 86.3231 6.09785L89.0072 11.0494C89.5533 12.0569 90.475 12.8082 91.5719 13.1399L92.749 13.4959C96.3369 14.5809 96.4754 19.5087 93.0527 21.0368C91.1718 21.8765 91.7264 23.4821 93.0527 24.2849C93.3066 24.4386 93.8561 24.6494 94.5788 24.8898C97.508 25.864 97.8412 29.9976 95.0052 31.2167L94.813 31.2993C93.7449 31.7585 93.0527 32.8095 93.0527 33.9722C93.0527 35.2215 93.8503 36.3314 95.0344 36.7298L95.2763 36.8112C98.1645 37.7828 98.2647 41.831 95.4281 42.9443L94.6571 43.247C93.6892 43.6269 93.0527 44.5606 93.0527 45.6003C93.0527 46.7176 93.786 47.7023 94.8564 48.0224L95.2897 48.152C98.1202 48.9985 98.3161 52.932 95.5837 54.0556L94.8244 54.3678C93.7524 54.8086 93.0527 55.8529 93.0527 57.012C93.0527 58.2574 93.8589 59.3595 95.0459 59.7367L95.8645 59.9968C98.5177 60.8398 98.6247 64.5548 96.0376 65.5829C94.9274 66.0241 94.193 67.1001 94.193 68.2947V68.4569C94.193 69.6767 95.0099 70.7454 96.187 71.0655C98.6689 71.7403 98.8949 75.1726 96.523 76.1671L95.6049 76.552C94.4733 77.0265 93.7369 78.1337 93.7369 79.3608V79.727C93.7369 81.0547 94.5752 82.2378 95.8279 82.678C98.5904 83.6488 98.6241 87.5436 95.8787 88.5618L95.5458 88.6853C94.4585 89.0886 93.7369 90.1259 93.7369 91.2856C93.7369 92.5171 94.549 93.6011 95.7309 93.9471L95.8427 93.9799C98.5154 94.7625 98.6903 98.4821 96.1028 99.512L91.0579 101.52C89.9905 101.945 89.1109 102.739 88.5789 103.757L86.4041 107.919C85.1152 110.386 81.5055 110.13 80.5763 107.507C80.1258 106.235 78.9224 105.384 77.5727 105.384H77.411C76.0981 105.384 74.8982 106.144 74.3295 107.327C73.0258 110.039 69.1121 109.946 67.9751 107.16L67.2318 105.338C66.8476 104.397 65.932 103.781 64.9153 103.781C63.9857 103.781 63.1328 104.297 62.7004 105.12L61.2834 107.817C59.974 110.309 56.3398 110.102 55.3213 107.478C54.8315 106.216 53.6168 105.384 52.2631 105.384H51.9452C50.5846 105.384 49.3445 106.164 48.7551 107.39L48.6571 107.594C47.3796 110.252 43.5678 110.172 42.4028 107.463C41.8603 106.202 40.619 105.384 39.2458 105.384H38.6038C37.2998 105.384 36.0981 106.091 35.4639 107.23L34.9781 108.103C33.6403 110.507 30.0818 110.168 29.2224 107.554C28.7966 106.259 27.5875 105.384 26.2244 105.384H25.8338C24.5394 105.384 23.3575 106.12 22.7865 107.282C21.4838 109.932 17.6531 109.771 16.577 107.021L15.1799 103.451C14.6626 102.129 13.6164 101.084 12.2941 100.567L10.2632 99.7745L8.02561 98.9257C5.55171 97.9872 5.71169 94.4351 8.25993 93.7228C9.44423 93.3918 10.2632 92.3126 10.2632 91.0829V90.8433C10.2632 89.5841 9.49102 88.4537 8.31805 87.9958L7.96156 87.8566C5.32098 86.8256 5.45238 83.0452 8.15816 82.2001C9.41045 81.8089 10.2632 80.6492 10.2632 79.3373V78.9127C10.2632 77.7126 9.54816 76.6278 8.4452 76.1546L7.8247 75.8884C5.40738 74.8513 5.66328 71.3443 8.20555 70.6691C9.41865 70.3469 10.2632 69.2488 10.2632 67.9937V67.8966C10.2632 66.7022 9.52228 65.6277 8.40885 65.1955C5.79766 64.1819 5.89983 60.4307 8.57656 59.6056L12.3573 58.4403C13.0105 58.239 13.4561 57.6353 13.4561 56.9517C13.4561 56.3151 13.0688 55.7425 12.4778 55.5057L8.69898 53.9915C5.9747 52.8999 6.15201 48.9853 8.96382 48.1444L9.36355 48.0249C10.4388 47.7033 11.1754 46.7141 11.1754 45.5919C11.1754 44.5555 10.5457 43.6232 9.58443 43.2361L8.84826 42.9397C5.92872 41.7642 6.07646 37.5817 9.07167 36.6152L9.60122 36.4443C10.6755 36.0977 11.4035 35.0977 11.4035 33.9689C11.4035 32.9297 10.785 31.9903 9.83045 31.5796L8.62178 31.0595C5.85563 29.8693 6.14425 25.857 9.05227 25.075L9.76366 24.8837C10.7311 24.6236 11.4035 23.7464 11.4035 22.7446C11.4035 21.835 10.8474 21.0178 10.0011 20.684L9.2894 20.4033C6.33079 19.2364 6.52394 14.9859 9.57618 14.0921L12.515 13.2316C13.8269 12.8474 14.885 11.8739 15.3768 10.5984Z" fill="#F24E1E" stroke="black" stroke-width="3" stroke-linejoin="round"/>
</svg>
