<svg width="32" height="32" viewBox="0 0 32 32" fill="none" xmlns="http://www.w3.org/2000/svg">
<path fill-rule="evenodd" clip-rule="evenodd" d="M11.831 0.179685C10.0062 0.407344 10.0548 0.306159 10.0548 3.92341V7.16123L8.30304 6.42766C4.50748 4.88464 3.92345 5.26407 1.63638 10.8544C0.614502 13.3333 0.590219 13.2827 3.14492 14.6234L5.23737 15.7111C5.23737 15.7111 0.419929 19.6825 0.49292 19.6066C-0.0666814 20.1378 -0.16398 20.9978 0.27397 21.6302C3.92355 27.094 7.40281 28.6118 10.1278 25.9557L10.809 25.2981L10.8577 26.664C10.8821 27.4229 10.8821 28.6371 10.8334 29.3453C10.7117 31.9255 13.3637 32.5073 21.0279 31.5966C23.3393 31.3184 23.1933 31.5207 23.023 28.6371L22.877 26.0822L23.5826 26.4616C26.0886 27.8023 27.0131 27.347 29.7625 23.578C32.5605 19.7331 32.4632 20.1125 30.9547 18.7971C29.1785 17.2288 27.1105 15.5593 26.7699 15.4328C28.1081 13.9151 30.5655 11.0567 30.5655 11.0567C30.9061 10.7026 31.0763 10.222 31.0763 9.74136C31.0763 9.26075 30.8574 8.78014 30.5168 8.4513C26.4536 4.58109 24.1422 3.69575 22.1471 5.28937L21.0279 6.17471C21.0279 6.17471 20.9549 1.7733 20.9306 1.49505C20.8332 0.356753 16.0401 -0.351519 11.831 0.179685ZM19.5193 10.7785C20.6142 10.6014 21.9038 9.86784 23.2663 8.60306C24.7018 7.2624 24.6775 7.26241 26.0643 8.4513C26.6726 8.9825 27.2807 9.48841 27.4267 9.58959C27.597 9.71607 27.4268 10.0196 26.9645 10.4496C22.4633 14.5222 21.2711 16.3435 23.0716 16.3435C23.3879 16.3435 27.6214 19.9101 27.6214 19.9101L24.7991 24.1598L24.0448 23.6791C19.2274 20.6184 17.8893 21.099 19.0085 25.5004C19.933 29.143 19.9816 29.7248 19.2031 29.7248C18.8868 29.7248 14.9696 30.0536 14.9696 30.0536L14.8236 27.0434C14.6776 23.7803 14.8965 17.5324 9.17884 22.7432C7.52437 24.2609 7.30544 24.6151 6.5512 23.7803C6.33222 23.5274 4.43439 21.1243 4.43439 21.1243C4.43439 21.1243 7.30547 18.6959 7.91373 18.2406C10.8091 16.1917 10.4197 15.964 7.03781 14.1428C5.74829 13.4345 4.62913 12.8021 4.53181 12.7009C4.43449 12.5997 6.62414 8.24893 6.62414 8.24893L8.93554 9.4884C12.1958 11.2591 14.0449 11.512 13.68 9.31134C13.4367 7.79361 13.4367 2.22862 13.4367 2.22862L17.4512 2.17802C17.4512 2.17802 16.9889 6.73121 17.2079 9.05839C17.3539 10.0702 17.5242 11.082 19.5193 10.7785Z" fill="black"/>
</svg>
