<svg width="32" height="32" viewBox="0 0 32 32" fill="none" xmlns="http://www.w3.org/2000/svg">
<path d="M31.1173 11.6081L30.4717 9.35696L31.198 8.37731C33.881 4.7297 28.8982 -0.981414 24.9442 1.20715C24.5206 1.43643 24.0163 1.45727 23.29 1.26968C21.9586 0.915342 17.6011 0.164979 16.7135 0.0607614C13.7682 -0.314422 14.575 1.16546 15.846 1.29052C18.7106 1.60317 18.6501 1.43643 17.8835 2.27017C16.6933 3.58331 17.7221 8.7108 19.6184 10.9411C21.3332 12.9629 25.4889 14.0467 26.78 12.7961C29.342 10.2949 28.636 21.8839 25.9933 25.4273C17.7625 36.4952 0.413276 25.8233 3.54016 11.6081L3.90334 9.94057L5.39615 10.9619C7.99853 12.7545 9.06768 11.8582 7.07051 9.56539C3.80241 5.83441 4.91201 1.08209 8.34149 4.10439C9.49138 5.12572 10.9035 5.27163 11.4886 4.45873C13.2235 1.9992 14.2523 2.87463 14.2321 5.50091C14.2321 6.91827 13.5866 7.87706 10.9438 10.42C8.6239 12.6502 8.52304 13.4006 10.5404 13.4006C11.892 13.4006 16.2696 8.04381 16.6529 5.93862C17.1976 2.97884 13.3243 0.561003 11.0245 2.41607C10.5 2.85379 10.1773 2.93716 9.97556 2.72873C9.77383 2.52029 9.81416 2.1451 10.4597 1.76992C11.1053 1.39474 12.0938 1.10294 11.8718 0.477631C11.5692 -0.356109 9.32997 0.727748 9.02737 0.91534C8.72477 1.08209 7.6354 1.81161 6.70743 1.81161C3.52002 1.81161 2.30962 2.81209 2.57187 5.2091C2.71309 6.54308 2.63243 6.91827 1.90619 8.25225C-3.76255 18.6323 3.90332 31.7429 15.7855 31.993C27.8694 32.2848 34.5064 23.4263 31.1173 11.6081ZM27.0422 9.44034C24.8635 11.9416 24.5407 12.0458 22.7453 10.9619C21.313 10.0865 20.1429 7.81453 19.9008 5.41753C19.6588 2.89547 20.9095 2.22848 23.0479 3.72921L24.097 4.47957L25.1459 3.7709C28.1518 1.7074 32.1057 3.64584 27.0422 9.44034Z" fill="black"/>
<path d="M6.0814 16.2559C6.22262 16.6936 6.5252 18.1526 6.76728 19.5075C8.56272 29.6166 24.2577 29.429 25.0646 19.299C25.1655 18.0484 25.3874 16.9437 25.5488 16.8395C26.9609 15.9015 23.1885 14.6509 20.5256 15.1929C19.6985 15.3596 16.5313 15.4013 12.7588 15.2971C5.77882 15.0886 5.73846 15.0886 6.0814 16.2559ZM23.1885 16.9437V18.4861C23.1885 24.2181 13.2833 27.3655 9.99503 22.6548C8.86532 21.0499 8.88553 20.0702 8.72414 17.0479C18.0039 16.7353 18.2259 16.777 23.1885 16.9437Z" fill="black"/>
</svg>
